<mxfile host="app.diagrams.net" modified="2023-10-30T20:50:45.104Z" agent="Mozilla/5.0 (Macintosh; Intel Mac OS X 10_15_7) AppleWebKit/605.1.15 (KHTML, like Gecko) Version/15.6.1 Safari/605.1.15" version="22.0.8" etag="wce-ZwvYXszorPRhqqtQ" type="github">
  <diagram name="Страница — 1" id="e0l2yq-vdr6c6IbJHctW">
    <mxGraphModel>
      <root>
        <mxCell id="0" />
        <mxCell id="1" parent="0" />
      </root>
    </mxGraphModel>
  </diagram>
</mxfile>
